<?xml version="1.0" encoding="UTF-8" standalone="no"?>
<!-- Created with Inkscape (http://www.inkscape.org/) -->

<svg
   xmlns:dc="http://purl.org/dc/elements/1.1/"
   xmlns:cc="http://creativecommons.org/ns#"
   xmlns:rdf="http://www.w3.org/1999/02/22-rdf-syntax-ns#"
   xmlns:svg="http://www.w3.org/2000/svg"
   xmlns="http://www.w3.org/2000/svg"
   xmlns:sodipodi="http://sodipodi.sourceforge.net/DTD/sodipodi-0.dtd"
   xmlns:inkscape="http://www.inkscape.org/namespaces/inkscape"
   width="109.46576mm"
   height="101.12695mm"
   viewBox="0 0 109.46576 101.12695"
   version="1.1"
   id="svg8"
   inkscape:version="0.92.3 (2405546, 2018-03-11)"
   sodipodi:docname="Programming Coding.svg">
  <title
     id="title23">Programming Coding</title>
  <defs
     id="defs2" />
  <sodipodi:namedview
     id="base"
     pagecolor="#ffffff"
     bordercolor="#666666"
     borderopacity="1.0"
     inkscape:pageopacity="0.0"
     inkscape:pageshadow="2"
     inkscape:zoom="0.35"
     inkscape:cx="313.89293"
     inkscape:cy="-65.332034"
     inkscape:document-units="mm"
     inkscape:current-layer="layer1"
     showgrid="false"
     fit-margin-top="0"
     fit-margin-left="0"
     fit-margin-right="0"
     fit-margin-bottom="0"
     inkscape:window-width="1920"
     inkscape:window-height="1017"
     inkscape:window-x="3832"
     inkscape:window-y="-8"
     inkscape:window-maximized="1" />
  <metadata
     id="metadata5">
    <rdf:RDF>
      <cc:Work
         rdf:about="">
        <dc:format>image/svg+xml</dc:format>
        <dc:type
           rdf:resource="http://purl.org/dc/dcmitype/StillImage" />
        <dc:title>Programming Coding</dc:title>
        <cc:license
           rdf:resource="http://creativecommons.org/publicdomain/zero/1.0/" />
      </cc:Work>
      <cc:License
         rdf:about="http://creativecommons.org/publicdomain/zero/1.0/">
        <cc:permits
           rdf:resource="http://creativecommons.org/ns#Reproduction" />
        <cc:permits
           rdf:resource="http://creativecommons.org/ns#Distribution" />
        <cc:permits
           rdf:resource="http://creativecommons.org/ns#DerivativeWorks" />
      </cc:License>
    </rdf:RDF>
  </metadata>
  <g
     inkscape:label="Layer 1"
     inkscape:groupmode="layer"
     id="layer1"
     transform="translate(-22.782496,-30.420623)">
    <path
       style="fill:#000000;stroke-width:1"
       d="m 110.17186,131.13995 c -2.71313,-0.94769 -2.95163,-1.05108 -3.14099,-1.3616 -0.0973,-0.1595 -0.177,-0.36375 -0.1772,-0.4539 0,-0.0901 0.27581,-0.93304 0.61333,-1.87311 0.33752,-0.94006 0.61258,-1.73726 0.61124,-1.77155 -10e-4,-0.0343 -0.22348,-0.21104 -0.49365,-0.39278 -0.27018,-0.18175 -0.80014,-0.62261 -1.1777,-0.97971 l -0.68648,-0.64927 -1.58417,0.9089 c -1.30145,0.74671 -1.65377,0.9089 -1.97428,0.9089 -0.5099,0 -0.60076,-0.11198 -1.85844,-2.29038 -1.082281,-1.87461 -1.164911,-2.14264 -0.790761,-2.5652 0.11684,-0.13194 0.892201,-0.63765 1.723031,-1.12379 0.83083,-0.48616 1.4996,-0.93398 1.48618,-0.99518 -0.0956,-0.43539 -0.40723,-2.21545 -0.44918,-2.56534 l -0.0514,-0.42911 -0.96484,-0.16352 c -2.408391,-0.40817 -2.624311,-0.45995 -2.905951,-0.69693 -0.22543,-0.18968 -0.27759,-0.30752 -0.27759,-0.62716 0,-0.63047 0.65012,-4.20604 0.80878,-4.44818 0.29576,-0.4514 0.53105,-0.46669 2.333021,-0.15162 0.9108,0.15926 1.74119,0.28956 1.8453,0.28956 0.14151,0 0.30935,-0.22042 0.66499,-0.87332 0.26165,-0.48032 0.60501,-1.0645 0.76305,-1.29817 0.15803,-0.23367 0.28751,-0.45074 0.28773,-0.48239 0,-0.0316 -0.5272,-0.68731 -1.17204,-1.45704 -0.64485,-0.76973 -1.19257,-1.50478 -1.21717,-1.63344 -0.0943,-0.49327 0.12284,-0.75989 1.71588,-2.10694 0.86387,-0.73046 1.71238,-1.38912 1.8856,-1.46368 0.56031,-0.24118 0.80452,-0.0761 2.00336,1.35433 0.59429,0.7091 1.12603,1.3507 1.18161,1.42578 0.0861,0.11629 0.19805,0.0943 0.7553,-0.14813 0.6959,-0.30278 1.25382,-0.50052 1.90519,-0.67523 l 0.40125,-0.10763 v -1.84209 c 0,-2.005902 0.054,-2.264402 0.51663,-2.475212 0.3443,-0.15688 4.47601,-0.15688 4.8203,0 0.46221,0.21059 0.51663,0.47015 0.51663,2.463912 v 1.83078 l 0.59008,0.17422 c 0.32454,0.0958 0.99313,0.33672 1.48576,0.53532 0.88027,0.35489 0.89813,0.35791 1.03853,0.17534 0.0786,-0.10217 0.6102,-0.73808 1.18139,-1.41314 1.42004,-1.67824 1.56491,-1.714752 2.7986,-0.70542 2.67506,2.18854 2.95541,2.50473 2.73184,3.08105 -0.0453,0.11681 -0.57515,0.80034 -1.17742,1.51896 -0.60227,0.71861 -1.11973,1.34653 -1.14992,1.39537 -0.0302,0.0489 0.15753,0.41994 0.41716,0.82467 0.25961,0.40472 0.60782,1.01123 0.77379,1.3478 l 0.30177,0.61195 1.84327,-0.31795 c 1.99108,-0.34346 2.23758,-0.33247 2.52929,0.11274 0.0725,0.11063 0.30245,1.17193 0.51105,2.35846 0.51606,2.93548 0.59452,2.81256 -2.09457,3.28141 l -1.76754,0.30817 -0.0513,0.42779 c -0.0418,0.34885 -0.35349,2.12899 -0.44897,2.56403 -0.0134,0.0612 0.65535,0.50902 1.48618,0.99518 0.83083,0.48614 1.60619,0.99185 1.72302,1.12379 0.3749,0.42339 0.29043,0.70256 -0.76537,2.52951 -1.26589,2.19049 -1.37483,2.32607 -1.86897,2.32607 -0.31191,0 -0.68304,-0.17035 -1.97725,-0.90753 l -1.59327,-0.90752 -0.72734,0.67926 c -0.40005,0.37359 -0.92112,0.81011 -1.15793,0.97003 -0.23682,0.15993 -0.44617,0.30303 -0.46524,0.318 -0.0191,0.015 0.25184,0.83353 0.602,1.81902 0.66063,1.85922 0.68811,2.0497 0.35438,2.45605 -0.20288,0.24704 -3.97614,1.63147 -4.45059,1.63296 -0.20987,0.001 -0.39457,-0.0748 -0.54037,-0.22087 -0.19009,-0.19042 -0.68016,-1.37044 -1.30763,-3.14865 l -0.16657,-0.47206 h -1.58335 -1.58335 l -0.35676,0.99133 c -0.93347,2.59374 -1.02374,2.76304 -1.52431,2.85873 -0.14279,0.0273 -0.75349,-0.13457 -1.52666,-0.40463 z m 6.35479,-11.37901 c 1.34692,-0.35082 2.73191,-1.47505 3.33669,-2.70846 1.26709,-2.5841 0.28884,-5.67396 -2.21253,-6.98839 -3.53447,-1.85731 -7.72008,0.63574 -7.72559,4.60153 -10e-4,0.99259 0.13301,1.54548 0.59663,2.45472 0.63841,1.25202 2.0419,2.36765 3.37008,2.67886 0.60135,0.1409 2.02633,0.12021 2.63472,-0.0383 z m -89.153231,3.35154 c -2.10119,-0.55039 -3.81707,-2.27256 -4.41815,-4.43433 -0.16336,-0.58751 -0.17072,-2.36914 -0.17256,-41.777452 -0.002,-38.92472 0.007,-41.19715 0.16344,-41.77745 0.3124,-1.1593 0.77883,-1.9553 1.66497,-2.84145 0.86551,-0.86551 1.63633,-1.32486 2.79424,-1.66516 0.53711,-0.15786 2.90082,-0.1678 45.60115,-0.19184 26.11505,-0.0147 45.510631,0.0104 46.167621,0.0598 1.2639,0.095 1.98832,0.30012 2.85682,0.80914 1.25176,0.73364 2.25819,1.97948 2.73405,3.38444 l 0.26269,0.77555 0.0244,28.96098 0.0243,28.96097 h -3.68283 -3.68283 V 72.888168 52.400698 H 73.950629 30.190519 v 31.76974 31.769752 h 3.35164 c 2.97883,0 3.35163,-0.0165 3.35163,-0.14782 0,-0.29594 -0.19611,-0.50011 -0.6362,-0.66237 -2.18902,-0.80711 -2.50668,-0.97192 -3.20308,-1.66182 -0.65221,-0.64612 -0.92123,-1.06311 -1.15247,-1.7864 -0.17663,-0.55251 -0.23991,-2.84436 -0.10919,-3.95546 0.0641,-0.54524 0.1511,-1.41619 0.19324,-1.93546 0.10708,-1.31934 0.41146,-3.60536 0.71027,-5.33429 0.3462,-2.003222 0.41349,-3.992882 0.1742,-5.151262 -0.0959,-0.46416 -0.17519,-1.19785 -0.17622,-1.63044 -0.002,-0.85087 0.10939,-1.05452 0.57705,-1.05452 0.41396,0 0.43704,-0.31573 0.1191,-1.62901 -0.33986,-1.40376 -0.0901,-2.12084 0.7074,-2.03096 0.41829,0.0471 1.04394,0.30686 1.54494,0.64131 l 0.30684,0.20483 0.002,-0.45773 c 0.002,-0.66315 0.23876,-2.3379 0.4622,-3.2787 0.2351,-0.9899 0.46415,-1.45428 1.27233,-2.57955 0.34316,-0.47779 0.62393,-0.90377 0.62393,-0.94662 0,-0.0428 0.22676,-0.36246 0.50391,-0.71026 0.27715,-0.34779 0.64812,-0.92022 0.82438,-1.27206 0.23266,-0.46445 0.56769,-0.88792 1.22282,-1.54566 0.85417,-0.85756 0.9196,-0.9521 1.22513,-1.77023 0.18353,-0.49146 0.37666,-0.86428 0.44771,-0.86428 0.0687,0 0.1494,-0.0637 0.17929,-0.14162 0.0299,-0.0779 0.11352,-0.14162 0.18586,-0.14162 0.0736,0 0.13136,-0.0936 0.13116,-0.21243 -10e-4,-0.54176 -0.28871,-1.89501 -0.51904,-2.44064 -0.66786,-1.58206 -0.71823,-1.77607 -0.71929,-2.77053 -0.001,-1.12253 0.11232,-1.69177 0.49062,-2.46022 1.04965,-2.13213 2.70582,-2.96008 5.20283,-2.60099 1.41927,0.20411 3.34958,0.96926 3.75931,1.49014 0.0974,0.12376 0.24893,0.44566 0.33685,0.71533 0.0879,0.26968 0.35464,0.91518 0.5927,1.43445 0.39029,0.85132 0.43054,1.00415 0.40945,1.55489 -0.018,0.47028 -0.0693,0.65961 -0.22286,0.82309 l -0.19946,0.21232 0.37807,0.50076 c 0.59093,0.78267 0.59741,0.88531 0.0786,1.24419 -0.18219,0.12601 -0.18223,0.13348 -0.004,0.65926 0.14602,0.42957 0.16059,0.58525 0.0758,0.80982 -0.0831,0.22017 -0.0775,0.30083 0.0271,0.38761 0.2148,0.17826 0.15285,0.44164 -0.18915,0.80422 -0.22338,0.23683 -0.34024,0.46747 -0.3837,0.75731 -0.099,0.65985 -0.28088,0.73022 -1.75078,0.67714 -1.38285,-0.0499 -1.26237,-0.12153 -1.36899,0.8135 -0.035,0.30701 -0.0961,0.6459 -0.13575,0.75311 -0.051,0.13793 0.0206,0.37503 0.24472,0.8108 0.45828,0.89083 0.59993,1.58961 0.68559,3.38217 l 0.0761,1.592 0.42984,0.79484 c 0.72085,1.33298 1.12659,2.91194 1.24746,4.85456 0.0323,0.51927 0.11907,1.36898 0.1928,1.88825 0.0737,0.51927 0.16021,1.27339 0.1922,1.67582 l 0.0581,0.73169 0.95968,0.001 c 0.59446,7.2e-4 1.10338,0.0532 1.33732,0.13748 0.2077,0.0748 0.66001,0.13792 1.00512,0.1402 0.61153,0.004 0.64908,-0.0102 1.47865,-0.56043 0.77569,-0.51449 1.44126,-0.84324 2.10928,-1.04184 0.23665,-0.0704 2.24012,0.11142 2.70038,0.24502 0.20329,0.059 0.88244,0.98651 1.16969,1.59742 l 0.13318,0.28324 1.51686,-0.0113 c 0.83428,-0.006 1.80166,-0.0609 2.14975,-0.12151 0.58675,-0.10218 0.6507,-0.0962 0.87739,0.0821 0.32222,0.25346 0.43961,0.24416 1.14803,-0.091 0.69833,-0.33036 0.75665,-0.33648 1.13556,-0.11901 0.24223,0.13902 0.33258,0.14658 0.5901,0.0494 0.26394,-0.0996 0.34438,-0.0899 0.60942,0.0739 0.5514,0.34078 0.98448,0.90246 0.98448,1.27681 0,0.18501 -0.0444,0.41941 -0.0987,0.52089 -0.0967,0.18074 -0.0577,0.18398 1.91184,0.15901 l 2.01061,-0.0255 0.0262,-1.34537 0.0262,-1.34538 h 0.79991 0.79992 v -1.41618 -1.41619 h -0.56648 -0.56647 v -11.18786 -11.18786 h 2.02986 2.02987 v 11.18786 11.18786 h -0.56647 -0.56648 v 1.41619 1.41618 h 0.79991 0.79992 l 0.0262,1.34538 0.0262,1.34537 7.01012,0.0242 7.01011,0.0242 v 1.08514 1.08513 h -0.51927 -0.51927 v 0.708092 0.7081 h -0.55131 -0.55133 l -0.0622,2.47832 c -0.0342,1.36308 -0.0622,4.67695 -0.0624,7.36416 v 4.88584 h 0.84972 0.84971 v 3.68208 3.68208 l -33.11512,-0.005 c -32.35615,-0.005 -33.131,-0.009 -33.80795,-0.18667 z m 14.46472,-7.38472 c 0.0313,-0.11683 0.0575,-0.32926 0.0582,-0.47206 0.001,-0.24475 -0.023,-0.25963 -0.42114,-0.25963 -0.44088,0 -0.56309,0.11889 -0.75213,0.73169 -0.0629,0.20384 -0.0428,0.21243 0.4963,0.21243 0.50282,0 0.5678,-0.0223 0.61875,-0.21243 z m 16.24939,-0.23603 c 0.0313,-0.24665 0.0737,-0.53343 0.0942,-0.63728 0.0512,-0.2595 0.63684,-1.89286 1.05739,-2.94931 0.19097,-0.47973 0.31917,-0.90028 0.2849,-0.93455 -0.0342,-0.0343 -0.22468,0.0502 -0.42313,0.18775 l -0.36083,0.25006 h -2.74331 c -1.50882,0 -2.94042,0.027 -3.18134,0.06 l -0.43804,0.06 -0.004,0.67166 c -0.006,1.02992 -0.37351,1.83735 -0.97497,2.14411 -0.1625,0.0829 -0.5716,0.29822 -0.90913,0.47854 -0.60016,0.32063 -0.63039,0.32639 -1.37266,0.26163 -0.41744,-0.0364 -1.37337,-0.0818 -2.12428,-0.10088 l -1.36529,-0.0346 -0.0285,0.49566 -0.0285,0.49567 h 6.23036 6.23036 z m 14.34193,-5.80636 c -0.023,-3.44015 -0.0656,-6.72593 -0.0948,-7.30175 l -0.053,-1.04693 -3.74453,-0.0623 c -2.05949,-0.0343 -5.24214,-0.0623 -7.07256,-0.0624 l -3.32804,-1.3e-4 v -0.7081 c 0,-0.692352 -0.005,-0.708092 -0.23603,-0.708092 h -0.23603 v -0.99133 c 0,-0.54523 -0.0319,-0.98888 -0.0708,-0.98588 -0.26795,0.0206 -1.35292,0.35535 -1.47199,0.45417 -0.11021,0.0915 -0.13293,0.23176 -0.0926,0.57207 0.0492,0.41554 0.0359,0.45558 -0.17051,0.51081 -0.12316,0.033 -0.42776,0.0605 -0.67689,0.0612 -0.35473,0.001 -0.49811,0.05 -0.66113,0.2259 -0.11448,0.12354 -0.2895,0.24037 -0.38892,0.25964 -0.0994,0.0193 -0.19433,0.0775 -0.21092,0.129432 -0.0376,0.11774 0.4719,0.45306 0.91144,0.59983 0.18174,0.0607 0.62783,0.36493 0.99132,0.6761 0.36349,0.31117 0.83083,0.68185 1.03854,0.82372 0.20771,0.14187 0.52635,0.37374 0.70809,0.51526 0.3074,0.23937 0.41275,0.26127 1.5106,0.31403 1.41719,0.0681 6.6794,0.97011 7.92958,1.35922 1.02659,0.3195 1.36586,0.58541 1.75718,1.37718 0.34163,0.69126 0.34764,0.72226 0.28785,1.48564 -0.0852,1.08777 -0.18166,1.36021 -0.7106,2.00702 -0.40409,0.49413 -0.53122,0.76768 -0.99555,2.14209 -0.29277,0.86659 -0.76945,2.07743 -1.05929,2.69076 -0.28985,0.61331 -0.6057,1.29569 -0.70191,1.51638 l -0.17493,0.40125 h 3.52912 3.52912 z m 18.07413,-0.94412 c -0.017,-3.95942 -0.0652,-7.25205 -0.10719,-7.31696 -0.0601,-0.0928 -1.75261,-0.11801 -7.93914,-0.11801 h -7.86275 l -0.0623,2.28118 c -0.0342,1.25465 -0.0623,4.54728 -0.0623,7.31696 v 5.03577 h 8.03225 8.03226 z m -54.17627,5.13844 c 0,-0.0428 -0.23025,-0.34372 -0.51167,-0.66869 -0.28142,-0.32496 -0.67212,-0.89535 -0.86823,-1.26753 -0.32239,-0.61183 -0.3554,-0.74132 -0.34443,-1.35098 0.0166,-0.92287 0.16203,-1.39201 0.57286,-1.84812 0.41211,-0.45752 0.90659,-0.69469 1.63263,-0.78305 0.2906,-0.0354 0.5706,-0.0921 0.62222,-0.12605 0.0516,-0.034 0.14317,-0.65935 0.20344,-1.38976 0.0603,-0.73041 0.19185,-1.64385 0.2924,-2.02987 0.3469,-1.33176 0.41569,-1.92361 0.25865,-2.22553 -0.29556,-0.56826 -0.81933,-0.8602 -0.81933,-0.45669 0,0.15836 -0.51959,0.76848 -0.7674,0.9011 -0.12395,0.0663 -0.25109,0.0543 -0.43573,-0.0411 -0.49073,-0.25376 -0.60054,-0.46904 -0.73734,-1.44537 -0.0715,-0.51011 -0.32452,-2.066152 -0.56232,-3.457872 -0.40549,-2.37306 -0.58675,-3.16887 -0.6709,-2.94552 -0.0196,0.0519 -0.0753,1.09282 -0.12394,2.3131 -0.10217,2.56519 -0.27933,4.172212 -0.61408,5.570402 -0.51351,2.14481 -0.72265,3.8865 -0.72554,6.04232 -0.002,1.76225 0.0746,2.21917 0.5355,3.17889 0.44846,0.93381 0.97483,1.43453 1.89661,1.80418 0.73228,0.29365 1.1666,0.37786 1.1666,0.22618 z m 22.42125,-16.592142 c 0.14123,-0.18515 0.22957,-0.36385 0.19631,-0.39711 -0.0832,-0.0832 -0.65822,0.23746 -0.91414,0.50988 l -0.21033,0.22388 h 0.3357 c 0.27388,0 0.38297,-0.062 0.59246,-0.33665 z m 1.64704,-0.95065 c 0.10762,-0.13682 0.19568,-0.28552 0.19568,-0.33044 0,-0.13712 -0.3549,-0.0909 -0.51253,0.0667 -0.18526,0.18525 -0.19394,0.51252 -0.0136,0.51252 0.0741,0 0.22282,-0.11194 0.33044,-0.24876 z m 1.55263,-0.29826 c 0.0709,-0.11473 -0.31926,-0.68034 -0.46931,-0.68034 -0.13704,0 -0.17864,0.33598 -0.075,0.60596 0.0589,0.15341 0.46151,0.20843 0.54435,0.0744 z m 33.43398,-50.68703 c 0.49414,-0.26609 0.84088,-0.64071 1.07811,-1.16478 0.16982,-0.37515 0.19255,-0.61951 0.19438,-2.0888 0.003,-2.22225 -0.17599,-2.72869 -1.16302,-3.29479 l -0.48712,-0.27938 -1.72605,-8.5e-4 c -1.23667,-6.8e-4 -1.8122,0.0352 -2.02987,0.12642 -0.49252,0.20639 -0.92911,0.63449 -1.16608,1.1434 -0.20824,0.44718 -0.22155,0.58425 -0.22047,2.26975 0.001,1.53678 0.026,1.84848 0.17435,2.17514 0.2038,0.44864 0.91313,1.10395 1.35356,1.25046 0.18657,0.0621 0.96842,0.0959 1.96235,0.085 1.4916,-0.0164 1.68892,-0.0379 2.02986,-0.22154 z m 10.635041,-0.0536 c 1.04381,-0.61362 1.24666,-1.2073 1.19713,-3.50365 -0.0385,-1.78389 -0.10034,-2.02423 -0.67229,-2.61222 -0.5715,-0.58751 -0.85905,-0.65592 -2.75718,-0.65592 -1.9351,0 -2.21752,0.0718 -2.77418,0.70586 -0.54216,0.61748 -0.57755,0.7925 -0.57657,2.85102 l 0.001,1.86768 0.27337,0.4766 c 0.29387,0.51233 0.85401,0.96276 1.35159,1.08687 0.1698,0.0423 1.03097,0.069 1.91372,0.0593 1.56294,-0.0173 1.61651,-0.0245 2.04352,-0.27551 z m 10.20667,0.17028 c 0.54971,-0.19617 0.99336,-0.58648 1.27546,-1.12211 0.25406,-0.48236 0.25798,-0.51638 0.25817,-2.23644 0,-1.97031 -0.0607,-2.26005 -0.60109,-2.85947 -0.58928,-0.65361 -0.8575,-0.72376 -2.7768,-0.72613 -1.86338,-0.002 -2.13822,0.0581 -2.69599,0.59279 -0.63559,0.60925 -0.67622,0.7851 -0.67622,2.92699 0,1.82339 0.0113,1.94581 0.21611,2.33304 0.2534,0.47919 0.7458,0.90437 1.25932,1.08742 0.49973,0.17813 3.2448,0.181 3.74104,0.004 z m -21.508541,38.32877 c -0.52345,-0.3138 -0.74225,-0.74226 -0.68161,-1.33476 0.0408,-0.39832 0.56785,-1.36454 3.75503,-6.8834 5.134811,-8.89133 4.972531,-8.62181 5.318511,-8.83277 0.65673,-0.40045 1.53607,-0.15488 2.02073,0.5643 0.35009,0.5195 0.28794,0.87132 -0.35959,2.03572 -1.15646,2.07959 -7.952551,13.79496 -8.175161,14.09268 -0.46548,0.62253 -1.20251,0.76312 -1.87791,0.35823 z m -4.76187,-1.56737 c -0.12982,-0.0539 -1.62361,-1.48784 -3.31951,-3.18655 -3.33111,-3.33659 -3.30565,-3.30307 -3.15136,-4.14873 0.056,-0.30696 0.46854,-0.75981 3.10251,-3.40558 1.67085,-1.67836 3.15264,-3.11224 3.29285,-3.18642 1.13735,-0.60168 2.57723,0.7265 2.01211,1.85602 -0.0887,0.17721 -1.22913,1.39459 -2.53437,2.70528 l -2.37315,2.38307 2.46965,2.47916 c 2.13584,2.14406 2.47853,2.52757 2.53527,2.83729 0.0906,0.49436 -0.16621,1.13365 -0.58302,1.45158 -0.36348,0.27723 -1.05434,0.37955 -1.45098,0.21488 z m 17.458881,-0.11498 c -0.49563,-0.334 -0.7479,-0.77672 -0.7479,-1.31246 0,-0.4288 0.0376,-0.50189 0.54286,-1.05645 0.29859,-0.32768 1.42403,-1.48426 2.501,-2.57017 l 1.95812,-1.97438 -2.39661,-2.40751 c -1.31814,-1.32413 -2.44358,-2.50032 -2.50099,-2.61374 -0.15097,-0.29824 -0.1282,-0.848 0.0507,-1.22506 0.23453,-0.49424 0.72969,-0.7874 1.32993,-0.7874 0.43714,0 0.54549,0.0419 0.8986,0.34766 0.8313,0.71977 5.84835,5.75261 5.97808,5.99688 0.0745,0.14022 0.13539,0.49863 0.13539,0.79646 v 0.54153 l -3.092,3.10529 c -1.7006,1.7079 -3.20673,3.16575 -3.34695,3.23965 -0.38328,0.20201 -0.94215,0.16776 -1.31025,-0.0803 z"
       id="path21"
       inkscape:connector-curvature="0" />
  </g>
</svg>
