<?xml version="1.0" encoding="UTF-8" standalone="no"?>
<!-- Generator: Adobe Illustrator 16.0.0, SVG Export Plug-In . SVG Version: 6.00 Build 0)  -->

<svg
   xmlns:dc="http://purl.org/dc/elements/1.1/"
   xmlns:cc="http://creativecommons.org/ns#"
   xmlns:rdf="http://www.w3.org/1999/02/22-rdf-syntax-ns#"
   xmlns:svg="http://www.w3.org/2000/svg"
   xmlns="http://www.w3.org/2000/svg"
   xmlns:sodipodi="http://sodipodi.sourceforge.net/DTD/sodipodi-0.dtd"
   xmlns:inkscape="http://www.inkscape.org/namespaces/inkscape"
   version="1.1"
   id="Capa_1"
   x="0px"
   y="0px"
   width="510px"
   height="510px"
   viewBox="0 0 510 510"
   style="enable-background:new 0 0 510 510;"
   xml:space="preserve"
   inkscape:version="0.92.3 (2405546, 2018-03-11)"
   sodipodi:docname="notification_logo_tilt.svg"><metadata
     id="metadata42"><rdf:RDF><cc:Work
         rdf:about=""><dc:format>image/svg+xml</dc:format><dc:type
           rdf:resource="http://purl.org/dc/dcmitype/StillImage" /><dc:title /></cc:Work></rdf:RDF></metadata><defs
     id="defs40" /><sodipodi:namedview
     pagecolor="#ffffff"
     bordercolor="#666666"
     borderopacity="1"
     objecttolerance="10"
     gridtolerance="10"
     guidetolerance="10"
     inkscape:pageopacity="0"
     inkscape:pageshadow="2"
     inkscape:window-width="1920"
     inkscape:window-height="1090"
     id="namedview38"
     showgrid="false"
     inkscape:zoom="0.23137255"
     inkscape:cx="-1892.5337"
     inkscape:cy="-13.707643"
     inkscape:window-x="-12"
     inkscape:window-y="58"
     inkscape:window-maximized="1"
     inkscape:current-layer="g3"
     inkscape:object-paths="true" /><g
     id="g3"
     transform="matrix(0.87658593,0,0,0.87658593,31.470588,31.470588)"><g
       id="notifications"
       transform="rotate(-20,243.59211,319.69739)"><path
         d="m 255,510 c 28.05,0 51,-22.95 51,-51 H 204 c 0,28.05 22.95,51 51,51 z M 420.75,357 V 216.75 C 420.75,137.7 367.2,73.95 293.25,56.1 V 38.25 C 293.25,17.85 275.4,0 255,0 234.6,0 216.75,17.85 216.75,38.25 V 56.1 C 142.8,73.95 89.25,137.7 89.25,216.75 V 357 l -51,51 v 25.5 h 433.5 V 408 Z"
         id="path6"
         inkscape:connector-curvature="0" /></g></g><g
     id="g8" /><g
     id="g10" /><g
     id="g12" /><g
     id="g14" /><g
     id="g16" /><g
     id="g18" /><g
     id="g20" /><g
     id="g22" /><g
     id="g24" /><g
     id="g26" /><g
     id="g28" /><g
     id="g30" /><g
     id="g32" /><g
     id="g34" /><g
     id="g36" /></svg>