<?xml version="1.0" encoding="UTF-8" standalone="no"?>
<svg
   xmlns:dc="http://purl.org/dc/elements/1.1/"
   xmlns:cc="http://creativecommons.org/ns#"
   xmlns:rdf="http://www.w3.org/1999/02/22-rdf-syntax-ns#"
   xmlns:svg="http://www.w3.org/2000/svg"
   xmlns="http://www.w3.org/2000/svg"
   xmlns:sodipodi="http://sodipodi.sourceforge.net/DTD/sodipodi-0.dtd"
   xmlns:inkscape="http://www.inkscape.org/namespaces/inkscape"
   version="1.1"
   x="0"
   y="0"
   width="500"
   height="535"
   viewBox="0, 0, 500, 535"
   id="svg49"
   sodipodi:docname="chicken_logo.svg"
   inkscape:version="0.92.4 (5da689c313, 2019-01-14)">
  <metadata
     id="metadata55">
    <rdf:RDF>
      <cc:Work
         rdf:about="">
        <dc:format>image/svg+xml</dc:format>
        <dc:type
           rdf:resource="http://purl.org/dc/dcmitype/StillImage" />
        <dc:title></dc:title>
      </cc:Work>
    </rdf:RDF>
  </metadata>
  <defs
     id="defs53" />
  <sodipodi:namedview
     pagecolor="#ffffff"
     bordercolor="#666666"
     borderopacity="1"
     objecttolerance="10"
     gridtolerance="10"
     guidetolerance="10"
     inkscape:pageopacity="0"
     inkscape:pageshadow="2"
     inkscape:window-width="1920"
     inkscape:window-height="1017"
     id="namedview51"
     showgrid="false"
     inkscape:zoom="1.24768"
     inkscape:cx="165.11713"
     inkscape:cy="261.22492"
     inkscape:window-x="1912"
     inkscape:window-y="-8"
     inkscape:window-maximized="1"
     inkscape:current-layer="svg49" />
  <g
     id="g4632"
     transform="translate(3.406784,-3.6187432)">
    <g
       transform="matrix(0.98360451,0,0,0.98360451,-0.02186056,8.781032)"
       style="stroke-width:20;stroke-miterlimit:4;stroke-dasharray:none"
       id="g6">
      <path
         inkscape:connector-curvature="0"
         style="fill:#ecb751;stroke-width:20;stroke-miterlimit:4;stroke-dasharray:none"
         id="path2"
         d="m 172.697,433.269 c 0,0 -1.05,44.336 -6.275,45.225 -5.234,0.893 -50.215,8.872 -47.075,12.417 3.14,3.55 43.936,6.206 43.936,6.206 0,0 -43.941,15.967 -35.567,18.628 8.364,2.656 89.966,-15.083 86.821,-19.517 -3.134,-4.429 -19.877,-17.734 -19.877,-17.734 l 2.094,-35.474" />
      <path
         inkscape:connector-curvature="0"
         style="fill-opacity:0;stroke:#493020;stroke-width:20;stroke-linecap:round;stroke-linejoin:round;stroke-miterlimit:4;stroke-dasharray:none"
         id="path4"
         d="m 172.697,433.269 c 0,0 -1.05,44.336 -6.275,45.225 -5.234,0.893 -50.215,8.872 -47.075,12.417 3.14,3.55 43.936,6.206 43.936,6.206 0,0 -43.941,15.967 -35.567,18.628 8.364,2.656 89.966,-15.083 86.821,-19.517 -3.134,-4.429 -19.877,-17.734 -19.877,-17.734 l 2.094,-35.474" />
    </g>
    <g
       transform="matrix(0.98360451,0,0,0.98360451,-0.02186056,8.781032)"
       style="stroke-width:20;stroke-miterlimit:4;stroke-dasharray:none"
       id="g12">
      <path
         inkscape:connector-curvature="0"
         style="fill:#ecb751;stroke-width:20;stroke-miterlimit:4;stroke-dasharray:none"
         id="path8"
         d="m 241.569,442.625 c 0,0 -1.045,44.34 -6.275,45.229 -5.229,0.894 -50.21,8.862 -47.07,12.412 3.135,3.545 43.936,6.211 43.936,6.211 0,0 -43.941,15.962 -35.572,18.618 8.369,2.666 89.971,-15.073 86.831,-19.506 -3.144,-4.434 -19.883,-17.735 -19.883,-17.735 l 2.09,-35.473" />
      <path
         inkscape:connector-curvature="0"
         style="fill-opacity:0;stroke:#493020;stroke-width:20;stroke-linecap:round;stroke-linejoin:round;stroke-miterlimit:4;stroke-dasharray:none"
         id="path10"
         d="m 241.569,442.625 c 0,0 -1.045,44.34 -6.275,45.229 -5.229,0.894 -50.21,8.862 -47.07,12.412 3.135,3.545 43.936,6.211 43.936,6.211 0,0 -43.941,15.962 -35.572,18.618 8.369,2.666 89.971,-15.073 86.831,-19.506 -3.144,-4.434 -19.883,-17.735 -19.883,-17.735 l 2.09,-35.473" />
    </g>
    <path
       inkscape:connector-curvature="0"
       style="fill:#df4e57;stroke-width:19.67209053;stroke-miterlimit:4;stroke-dasharray:none"
       id="path14"
       d="m 71.328811,142.21387 c 0,0 -13.379973,-0.84492 -19.229469,3.34229 -5.859332,4.18327 -6.695395,21.74749 -15.061935,31.78518 -8.361622,10.03768 -30.1081345,27.60092 -28.4369904,46.83629 1.6809804,19.24029 20.9163494,40.15074 54.3716904,28.43699 33.451405,-11.71374 9.192767,-81.12278 8.356704,-110.40075" />
    <path
       inkscape:connector-curvature="0"
       style="fill-opacity:0;stroke:#493020;stroke-width:19.67209053;stroke-linecap:round;stroke-linejoin:round;stroke-miterlimit:4;stroke-dasharray:none"
       id="path16"
       d="m 71.328811,142.21387 c 0,0 -13.379973,-0.84492 -19.229469,3.34229 -5.859332,4.18327 -6.695395,21.74749 -15.061935,31.78518 -8.361622,10.03768 -30.1081345,27.60092 -28.4369904,46.83629 1.6809804,19.24029 20.9163494,40.15074 54.3716904,28.43699 33.451405,-11.71374 9.192767,-81.12278 8.356704,-110.40075 z" />
    <path
       inkscape:connector-curvature="0"
       style="fill:#fffffe;stroke-width:19.67209053;stroke-miterlimit:4;stroke-dasharray:none"
       id="path18"
       d="M 483.66959,107.08148 C 471.1247,85.339889 359.88395,61.916331 313.88273,94.541509 277.21396,120.54408 294.2254,198.5931 302.6303,229.19697 c -0.16328,0.009 -0.29312,-0.01 -0.4564,0 0,0 -43.48909,24.25863 -86.14703,-6.69048 L 70.498648,235.88646 c 0,0 -55.202836,43.49401 -51.860547,121.2745 2.588847,60.16906 71.094934,104.5847 201.572039,105.38732 136.33054,0.83508 194.87664,-45.99629 202.4022,-159.74917 0,0 19.24029,-7.52654 22.58258,-17.56423 5.69113,-17.09308 -26.76093,-28.44191 -26.76093,-28.44191 0,0 30.94912,-10.03276 28.43699,-26.75601 -2.17082,-14.47078 -31.7842,-16.72816 -31.7842,-16.72816 0,0 49.34843,-9.20654 49.34843,-41.82188 0,-30.84387 -58.55103,-20.90651 -58.55103,-20.90651 0,0 90.3303,-21.7475 77.78541,-43.49893" />
    <path
       inkscape:connector-curvature="0"
       style="fill-opacity:0;stroke:#493020;stroke-width:19.67209053;stroke-linecap:round;stroke-linejoin:round;stroke-miterlimit:4;stroke-dasharray:none"
       id="path20"
       d="M 483.66959,107.08148 C 471.1247,85.339889 359.88395,61.916331 313.88273,94.541509 277.21396,120.54408 294.2254,198.5931 302.6303,229.19697 c -0.16328,0.009 -0.29312,-0.01 -0.4564,0 0,0 -43.48909,24.25863 -86.14703,-6.69048 L 70.498648,235.88646 c 0,0 -55.202836,43.49401 -51.860547,121.2745 2.588847,60.16906 71.094934,104.5847 201.572039,105.38732 136.33054,0.83508 194.87664,-45.99629 202.4022,-159.74917 0,0 19.24029,-7.52654 22.58258,-17.56423 5.69113,-17.09308 -26.76093,-28.44191 -26.76093,-28.44191 0,0 30.94912,-10.03276 28.43699,-26.75601 -2.17082,-14.47078 -31.7842,-16.72816 -31.7842,-16.72816 0,0 49.34843,-9.20654 49.34843,-41.82188 0,-30.84387 -58.55103,-20.90651 -58.55103,-20.90651 0,0 90.3303,-21.7475 77.78541,-43.49893 z" />
    <g
       transform="matrix(0.98360451,0,0,0.98360451,-0.02186056,8.781032)"
       style="stroke-width:20;stroke-miterlimit:4;stroke-dasharray:none"
       id="g26">
      <path
         inkscape:connector-curvature="0"
         style="fill:#ecb751;stroke-width:20;stroke-miterlimit:4;stroke-dasharray:none"
         id="path22"
         d="m 77.643,114.397 c 0,0 -60.376,14.453 -58.672,22.959 1.704,8.506 42.524,25.508 42.524,25.508" />
      <path
         inkscape:connector-curvature="0"
         style="fill-opacity:0;stroke:#493020;stroke-width:20;stroke-linecap:round;stroke-linejoin:round;stroke-miterlimit:4;stroke-dasharray:none"
         id="path24"
         d="m 77.643,114.397 c 0,0 -60.376,14.453 -58.672,22.959 1.704,8.506 42.524,25.508 42.524,25.508" />
    </g>
    <g
       transform="matrix(0.98360451,0,0,0.98360451,-0.02186056,8.781032)"
       style="stroke-width:20;stroke-miterlimit:4;stroke-dasharray:none"
       id="g32">
      <path
         inkscape:connector-curvature="0"
         style="fill:#df4e57;stroke-width:20;stroke-miterlimit:4;stroke-dasharray:none"
         id="path28"
         d="m 86.149,94.841 c 0,0 -18.711,-41.665 2.549,-56.123 18.149,-12.334 26.308,1.524 34.863,-0.854 15.308,-4.248 9.355,-33.159 39.961,-29.756 27.065,3.013 12.759,28.062 23.813,32.31 11.055,4.253 21.265,-3.404 29.761,8.505 13.35,18.697 0.523,29.185 5.952,36.563 11.904,16.157 13.609,31.465 -4.248,45.068" />
      <path
         inkscape:connector-curvature="0"
         style="fill-opacity:0;stroke:#493020;stroke-width:20;stroke-linecap:round;stroke-linejoin:round;stroke-miterlimit:4;stroke-dasharray:none"
         id="path30"
         d="m 86.149,94.841 c 0,0 -18.711,-41.665 2.549,-56.123 18.149,-12.334 26.308,1.524 34.863,-0.854 15.308,-4.248 9.355,-33.159 39.961,-29.756 27.065,3.013 12.759,28.062 23.813,32.31 11.055,4.253 21.265,-3.404 29.761,8.505 13.35,18.697 0.523,29.185 5.952,36.563 11.904,16.157 13.609,31.465 -4.248,45.068" />
    </g>
    <path
       inkscape:connector-curvature="0"
       style="fill:#fffffe;stroke-width:19.67209053;stroke-miterlimit:4;stroke-dasharray:none"
       id="path34"
       d="m 43.732802,248.4648 c 0,0 18.817338,-15.58915 15.051117,-24.49864 -3.76032,-8.90851 -25.088801,-148.117071 79.039511,-150.344935 106.72699,-2.281963 80.29753,132.522015 91.58341,141.436425 11.29178,8.90851 22.58258,20.04586 22.58258,20.04586 0,0 -31.36223,-1.11344 -36.38058,1.10951 -5.01934,2.23376 -7.53048,21.16126 -7.53048,21.16126 0,0 -32.61534,-15.59504 -36.38156,-12.25177 -3.76032,3.34229 -16.31013,26.7324 -16.31013,26.7324 l -21.32356,-21.16618 -35.13239,17.81799 c 0,0 0,-26.72748 -5.014415,-26.72748 -5.018351,0 -50.183503,6.68556 -50.183503,6.68556" />
    <path
       inkscape:connector-curvature="0"
       style="fill-opacity:0;stroke:#493020;stroke-width:19.67209053;stroke-linecap:round;stroke-linejoin:round;stroke-miterlimit:4;stroke-dasharray:none"
       id="path36"
       d="m 43.732802,248.4648 c 0,0 18.817338,-15.58915 15.051117,-24.49864 -3.76032,-8.90851 -25.088801,-148.117071 79.039511,-150.344935 106.72699,-2.281963 80.29753,132.522015 91.58341,141.436425 11.29178,8.90851 22.58258,20.04586 22.58258,20.04586 0,0 -31.36223,-1.11344 -36.38058,1.10951 -5.01934,2.23376 -7.53048,21.16126 -7.53048,21.16126 0,0 -32.61534,-15.59504 -36.38156,-12.25177 -3.76032,3.34229 -16.31013,26.7324 -16.31013,26.7324 l -21.32356,-21.16618 -35.13239,17.81799 c 0,0 0,-26.72748 -5.014415,-26.72748 -5.018351,0 -50.183503,6.68556 -50.183503,6.68556 z" />
    <path
       inkscape:connector-curvature="0"
       style="fill:#493020;stroke-width:19.67209053;stroke-miterlimit:4;stroke-dasharray:none"
       id="path38"
       d="m 134.89819,138.8706 c 0,12.47309 -6.92556,22.58257 -15.47407,22.58257 -8.54457,0 -15.47013,-10.10948 -15.47013,-22.58257 0,-12.47211 6.92556,-22.58258 15.47013,-22.58258 8.54851,0 15.47407,10.11047 15.47407,22.58258" />
    <g
       transform="matrix(0.98360451,0,0,0.98360451,-0.02186056,8.781032)"
       style="stroke-width:20;stroke-miterlimit:4;stroke-dasharray:none"
       id="g44">
      <path
         inkscape:connector-curvature="0"
         style="fill:#fffffe;stroke-width:20;stroke-miterlimit:4;stroke-dasharray:none"
         id="path40"
         d="m 187.335,276.809 c 0,0 -41.66,1.699 -54.414,31.46 -12.754,29.766 1.695,90.142 100.332,95.239 86.724,4.488 147.964,-19.555 148.809,-34.858 0.845,-15.308 -22.105,-14.463 -22.105,-14.463 0,0 45.059,-13.608 44.214,-22.954 -0.849,-9.355 -43.364,-12.754 -43.364,-12.754 0,0 32.378,-8.306 31.46,-17.007 -1.699,-16.162 -76.528,-11.909 -76.528,-11.909" />
      <path
         inkscape:connector-curvature="0"
         style="fill-opacity:0;stroke:#493020;stroke-width:20;stroke-linecap:round;stroke-linejoin:round;stroke-miterlimit:4;stroke-dasharray:none"
         id="path42"
         d="m 187.335,276.809 c 0,0 -41.66,1.699 -54.414,31.46 -12.754,29.766 1.695,90.142 100.332,95.239 86.724,4.488 147.964,-19.555 148.809,-34.858 0.845,-15.308 -22.105,-14.463 -22.105,-14.463 0,0 45.059,-13.608 44.214,-22.954 -0.849,-9.355 -43.364,-12.754 -43.364,-12.754 0,0 32.378,-8.306 31.46,-17.007 -1.699,-16.162 -76.528,-11.909 -76.528,-11.909" />
    </g>
  </g>
</svg>
